<svg width="125" height="19" viewBox="0 0 125 19" fill="white" xmlns="http://www.w3.org/2000/svg">
<path d="M113.078 2.61203C114 1.96004 114.859 1.18184 115.844 0.677071C118.861 -0.837249 122.716 0.740168 124.267 4.04223C124.769 5.11487 125 6.25061 125 7.42841C125 10.4781 125 13.5067 125 16.5564C125 17.4398 124.769 17.6711 123.91 17.6711C123.554 17.6711 123.219 17.6711 122.863 17.6711C122.171 17.6501 121.983 17.4818 121.962 16.7667C121.941 15.7151 121.962 14.6635 121.962 13.6119C121.962 11.6138 121.983 9.6368 121.962 7.63874C121.941 5.09384 120.055 3.15887 117.646 3.15887C115.194 3.1799 113.12 5.26209 113.12 7.72286C113.12 10.6884 113.12 13.654 113.12 16.6195C113.12 17.5028 112.952 17.6711 112.052 17.6711C111.695 17.6711 111.36 17.6711 111.004 17.6711C110.292 17.6501 110.082 17.4398 110.061 16.7036C110.04 15.7572 110.061 14.8318 110.061 13.8853C110.061 9.78402 110.061 5.70377 110.061 1.60249C110.061 0.719135 110.292 0.508813 111.172 0.487781C112.911 0.466748 112.973 0.529845 113.078 2.29655C113.078 2.44378 113.078 2.56997 113.078 2.61203Z" fill="#A03ADB"/>
<path d="M105.159 9.13202C105.159 14.1377 101.157 18.1338 96.1492 18.1338C91.1835 18.1338 87.2026 14.1167 87.2026 9.13202C87.2026 4.12635 91.2045 0.109192 96.212 0.109192C101.136 0.109192 105.159 4.16841 105.159 9.13202ZM90.0731 9.13202C90.0731 12.5392 92.8178 15.3155 96.1911 15.3155C99.5224 15.3155 102.351 12.4761 102.33 9.11099C102.33 5.76686 99.5015 2.92751 96.1701 2.92751C92.8178 2.92751 90.0731 5.7248 90.0731 9.13202Z" fill="#A03ADB"/>
<path d="M80.6445 9.04785C80.6445 6.48192 80.6445 3.89496 80.6445 1.32903C80.6445 0.508775 80.7283 0.445679 81.6293 0.445679C82.5721 0.445679 82.6769 0.529808 82.6769 1.35006C82.6769 6.50295 82.6769 11.6558 82.6769 16.7877C82.6769 17.608 82.5931 17.6711 81.6293 17.6711C80.7493 17.6711 80.6655 17.5869 80.6655 16.7667C80.6445 14.2007 80.6445 11.6138 80.6445 9.04785Z"/>
<path d="M71.3626 6.1033C70.5455 6.1033 69.7703 6.08227 68.995 6.1033C68.4922 6.12434 68.2617 5.95608 68.2617 5.38821C68.2617 4.84137 68.4503 4.65208 68.9741 4.67311C69.7493 4.69414 70.5245 4.67311 71.3417 4.67311C71.3417 3.45324 71.3417 2.25441 71.3417 1.0766C71.3417 0.319441 71.4045 0.235312 72.1378 0.151184C72.2007 0.130151 72.2636 0.130151 72.3055 0.130151C73.3112 0.0249902 73.395 0.109119 73.395 1.1397C73.395 2.29647 73.395 3.43221 73.395 4.65208C74.4007 4.65208 75.3854 4.65208 76.3702 4.65208C76.8311 4.65208 77.0825 4.82034 77.1035 5.32511C77.1244 5.82988 76.9149 6.08227 76.3911 6.08227C75.4273 6.06124 74.4635 6.08227 73.4369 6.08227C73.4159 6.27156 73.395 6.43982 73.395 6.58704C73.395 9.02678 73.395 11.4665 73.395 13.9063C73.395 14.1376 73.395 14.369 73.4159 14.6003C73.4997 15.673 74.0235 16.2198 75.0921 16.346C75.4692 16.3881 75.8673 16.3881 76.2654 16.4091C76.7473 16.4512 76.9359 16.7035 76.9149 17.1873C76.894 17.65 76.6844 17.8813 76.2445 17.8813C75.4064 17.8393 74.5683 17.8603 73.7512 17.7131C72.2426 17.4397 71.3626 16.2619 71.3417 14.5162C71.3207 11.9082 71.3207 9.34227 71.3207 6.73427C71.3626 6.56601 71.3626 6.35569 71.3626 6.1033Z" />
<path d="M48.6506 9.15278C48.6716 4.73601 51.4373 1.18157 55.502 0.27718C60.3419 -0.795464 65.1609 2.56969 65.8523 7.51227C66.4809 12.0132 64.3228 15.9462 60.3838 17.4605C55.0201 19.5217 49.1116 15.7569 48.7135 9.99407C48.6925 9.67858 48.6716 9.38413 48.6506 9.15278ZM50.683 9.08968C50.7039 13.7378 54.7686 16.9768 59.1267 15.7779C62.2695 14.9156 64.3437 11.6977 63.9666 8.24839C63.5895 4.79911 60.8238 2.17008 57.5134 2.10698C53.6372 2.04389 50.683 5.07253 50.683 9.08968Z" />
<path d="M22.5025 2.84323C25.4986 -1.25805 31.009 -0.164379 32.9157 3.74762C33.2719 3.24284 33.5652 2.696 33.9842 2.2333C35.5347 0.445556 37.5251 -0.122314 39.788 0.382459C42.1346 0.887233 43.685 2.40155 44.3974 4.69407C44.6488 5.47226 44.7326 6.33458 44.7536 7.17587C44.7955 10.3938 44.7745 13.6117 44.7745 16.8297C44.7745 17.5027 44.565 17.6709 43.7688 17.6709C42.9098 17.6709 42.7212 17.5237 42.7212 16.8086C42.7003 13.5486 42.7003 10.3097 42.7212 7.02864C42.7212 5.55639 42.3232 4.25239 41.1917 3.26387C39.9137 2.1702 38.447 1.91781 36.8966 2.46465C35.2204 3.05355 34.1938 4.25239 33.8585 5.99806C33.7328 6.67109 33.6909 7.38619 33.6909 8.10129C33.67 10.9406 33.6699 13.759 33.6699 16.5773C33.6699 17.5448 32.769 18.0916 31.9519 17.5448C31.7633 17.4186 31.6586 17.0189 31.6586 16.7455C31.6376 13.4014 31.6586 10.0783 31.6376 6.73419C31.6166 4.0631 29.4376 2.04401 26.8396 2.21226C24.4301 2.35949 22.5863 4.39961 22.5863 6.92348C22.5654 10.1624 22.5863 13.4014 22.5654 16.6404C22.5654 16.9559 22.4396 17.5027 22.293 17.5448C21.832 17.6709 21.3082 17.6289 20.8263 17.5237C20.7006 17.5027 20.5749 17.082 20.5749 16.8297C20.554 14.8737 20.554 12.9387 20.554 10.9827C20.554 7.70167 20.554 4.42065 20.554 1.16065C20.554 0.403491 20.7216 0.277298 21.4549 0.361427C21.6435 0.382459 21.832 0.424524 22.0206 0.424524C22.3977 0.424524 22.5234 0.634846 22.5234 0.992394C22.5234 1.28684 22.5444 1.5813 22.5444 1.87575C22.5025 2.1702 22.5025 2.42259 22.5025 2.84323Z" />
<path d="M14.2265 8.18537C14.1636 4.56782 10.5598 1.51815 7.01895 2.02292C5.40564 2.25428 4.04375 2.92731 2.87043 4.06305C2.5352 4.37853 2.22092 4.50473 1.86473 4.12615C1.29903 3.55828 1.15236 3.03247 1.50855 2.67492C3.18472 1.11854 5.09136 0.0879588 7.41704 0.00382991C10.497 -0.080299 12.9065 1.2237 14.6665 3.7055C17.034 7.07066 16.8036 11.7819 14.1636 14.9367C10.2037 19.6479 3.16376 18.5332 0.712371 12.7914C0.251425 11.6767 0 10.5199 0 9.32111C0 8.58498 0.230473 8.29053 0.963796 8.2064C1.23617 8.16433 1.50855 8.18537 1.78093 8.18537C5.71992 8.18537 9.65891 8.18537 13.5979 8.18537C13.8074 8.18537 13.996 8.18537 14.2265 8.18537ZM2.0533 9.97311C2.34663 13.2752 5.17516 15.9673 8.23417 15.9252C11.1046 15.8621 13.9541 13.0017 14.1427 9.97311C10.1199 9.97311 6.11801 9.97311 2.0533 9.97311Z" />
</svg>
