<svg width="87" height="87" viewBox="0 0 87 87" fill="none" xmlns="http://www.w3.org/2000/svg">
<path d="M43.5001 86.2232C67.0954 86.2232 86.2233 67.0954 86.2233 43.5C86.2233 19.9046 67.0954 0.776787 43.5001 0.776787C19.9047 0.776787 0.776855 19.9046 0.776855 43.5C0.776855 67.0954 19.9047 86.2232 43.5001 86.2232Z" fill="#A03ADB"/>
<path fill-rule="evenodd" clip-rule="evenodd" d="M43.1116 73.0179C37.5964 73.0179 30.2946 66.4206 30.2946 63.0276C30.2873 62.9145 30.3046 62.8011 30.3452 62.6953C30.3859 62.5895 30.449 62.4938 30.5302 62.4146C30.6114 62.3355 30.7087 62.2749 30.8156 62.237C30.9224 62.1991 31.0362 62.1847 31.1491 62.1949C31.1491 62.1949 37.4791 66.3577 43.1116 66.3577V73.0179ZM43.1116 73.0179C48.6267 73.0179 55.9285 66.4525 55.9285 63.075C55.9353 62.9623 55.9175 62.8493 55.8766 62.744C55.8357 62.6387 55.7725 62.5435 55.6914 62.4649C55.6102 62.3863 55.5131 62.3261 55.4065 62.2885C55.3 62.2509 55.1866 62.2367 55.0741 62.2469C55.0741 62.2469 48.744 66.3896 43.1116 66.3896V73.0179Z" fill="#131116"/>
<path fill-rule="evenodd" clip-rule="evenodd" d="M14.1234 37.5428C14.0442 37.5937 13.9543 37.6256 13.8607 37.636C13.7672 37.6463 13.6725 37.6349 13.5841 37.6026C13.4956 37.5702 13.4159 37.5178 13.3511 37.4495C13.2864 37.3812 13.2383 37.2988 13.2107 37.2088C12.9574 36.4755 15.6451 26.74 24.7545 23.5956C28.0131 22.4716 30.0739 23.57 30.0553 24.2637C30.0366 24.9574 25.7884 26.3486 21.3848 29.8993C16.9812 33.45 14.9142 37.2709 14.1234 37.5428Z" fill="#131116"/>
<path fill-rule="evenodd" clip-rule="evenodd" d="M74.1007 40.1598C74.1961 40.1564 74.2893 40.1311 74.3733 40.0859C74.4573 40.0406 74.5297 39.9766 74.585 39.8989C74.6403 39.8212 74.6769 39.7318 74.6921 39.6376C74.7073 39.5434 74.7005 39.447 74.6725 39.3558C74.4627 38.5961 66.6149 31.1996 57.1862 33.7925C53.8142 34.7192 53.4996 36.822 53.9136 37.3945C54.3277 37.9669 57.9048 36.6953 63.6312 37.1428C69.3577 37.5902 73.2867 40.3827 74.1007 40.1598Z" fill="#131116"/>
<path fill-rule="evenodd" clip-rule="evenodd" d="M30.2947 38.0625C32.869 38.0625 34.9555 41.5402 34.9555 45.8304C34.9555 50.1205 32.869 53.5982 30.2947 53.5982C27.7205 53.5982 25.634 50.1205 25.634 45.8304C25.634 41.5402 27.7205 38.0625 30.2947 38.0625Z" fill="#131116"/>
<path fill-rule="evenodd" clip-rule="evenodd" d="M58.259 44.2768C58.259 44.2768 49.7144 44.1471 49.7144 48.9375C49.7144 49.5123 49.7742 50.4911 52.0447 50.4911C54.3153 50.4911 55.4424 49.7143 59.0358 49.7143C62.6292 49.7143 62.2734 50.4911 65.2501 50.4911C68.2267 50.4911 67.5804 48.1607 67.5804 48.1607C67.5804 48.1607 65.988 44.2768 58.259 44.2768Z" fill="#131116"/>
</svg>
